<svg width="800" height="800" viewBox="0 -0.5 25 25" fill="none" xmlns="http://www.w3.org/2000/svg"><path d="M19.117 12.148a.75.75 0 1 0 .759-1.293zM6.943 4.137l-.387.642.008.004zm-1.019.023-.416-.624zm-.414.932-.742.11a1 1 0 0 0 .037.145zm1.614 6.665a.75.75 0 0 0 1.41-.51zm12.752.391a.75.75 0 1 0-.76-1.293zM6.943 18.867l-.38-.647-.007.004zm-1.019-.024-.416.624zm-.414-.931-.705-.256a1 1 0 0 0-.037.146zm3.025-6.155a.75.75 0 0 0-1.41-.51zm10.961.495a.75.75 0 0 0 0-1.5zm-11.667-1.5a.75.75 0 1 0 0 1.5zm12.047.103L7.323 3.49l-.76 1.293 12.554 7.365zM7.33 3.495a1.7 1.7 0 0 0-1.822.04l.832 1.249a.2.2 0 0 1 .216-.005zm-1.822.04a1.7 1.7 0 0 0-.74 1.667l1.484-.22a.2.2 0 0 1 .088-.198zm-.703 1.812 2.32 6.41 1.41-.51-2.32-6.41zm14.312 5.508L6.564 18.22l.759 1.293 12.553-7.365zm-12.56 7.37a.2.2 0 0 1-.217-.006l-.832 1.248a1.7 1.7 0 0 0 1.822.042zm-.217-.006a.2.2 0 0 1-.088-.198l-1.484-.22a1.7 1.7 0 0 0 .74 1.666zm-.124-.052 2.319-6.41-1.41-.51-2.32 6.41zm13.28-7.415H7.83v1.5h11.667z" fill="#000"/></svg>